<svg version="1.1" id="Layer_1" xmlns="http://www.w3.org/2000/svg" xmlns:xlink="http://www.w3.org/1999/xlink" x="0px" y="0px"
	 width="100%" viewBox="0 0 500 500" enable-background="new 0 0 500 500" xml:space="preserve">
<path fill="#000101" opacity="1.000000" stroke="none" 
	d="
M233.000000,501.000000 
	C155.333359,501.000000 78.166702,501.000000 1.000041,501.000000 
	C1.000028,334.333405 1.000028,167.666779 1.000014,1.000131 
	C167.666565,1.000087 334.333130,1.000087 500.999756,1.000044 
	C500.999847,167.666519 500.999847,334.333038 500.999939,500.999786 
	C411.833344,501.000000 322.666656,501.000000 233.000000,501.000000 
M36.173336,262.535767 
	C34.976135,268.110901 37.330299,270.787415 42.832161,272.110229 
	C49.573467,273.731079 54.814663,278.256866 55.852375,285.101715 
	C56.894707,291.977020 56.339172,299.158936 55.936676,306.175079 
	C55.178642,319.388794 53.607956,332.567108 53.201565,345.785492 
	C52.969151,353.344971 55.294418,360.622375 61.713444,365.611023 
	C71.579910,373.278870 83.076683,371.997559 94.500694,372.038910 
	C94.500694,366.482086 94.500694,361.739166 94.500694,356.389557 
	C91.393150,356.389557 88.599594,356.401306 85.806175,356.387482 
	C75.412544,356.336060 70.505623,351.640961 70.852516,341.109863 
	C71.162308,331.705292 72.190460,322.322449 72.980141,312.936584 
	C73.326401,308.821106 73.736023,304.702423 74.343956,300.618988 
	C76.695053,284.826965 73.686119,269.763641 55.862892,263.462433 
	C56.471058,263.014618 56.938511,262.469299 57.523849,262.269714 
	C65.778381,259.454926 71.774574,254.208679 73.126595,245.410339 
	C74.134514,238.851227 74.202431,232.073792 73.976746,225.417740 
	C73.697357,217.178238 72.655914,208.965775 71.993141,200.737656 
	C71.540779,195.121750 70.864075,189.500397 70.838768,183.879013 
	C70.799286,175.109619 75.820732,170.718613 84.601509,170.884384 
	C87.843094,170.945587 91.098259,170.287109 94.521538,169.939148 
	C94.633011,167.988541 94.775269,166.518631 94.791870,165.047318 
	C94.921501,153.560852 94.914040,153.560760 83.642509,153.636536 
	C67.202797,153.747070 55.667393,162.275314 53.428795,177.095444 
	C52.477253,183.394913 53.386581,190.012512 53.762486,196.467346 
	C54.445637,208.198166 55.086357,219.942978 56.254932,231.630936 
	C57.561954,244.703598 53.225594,252.296753 41.199657,254.848160 
	C36.187336,255.911591 35.872261,257.903015 36.173336,262.535767 
M437.027130,273.582947 
	C428.566345,283.780029 431.108826,295.864594 431.601135,307.417328 
	C432.142487,320.121185 433.994659,332.772552 434.436707,345.475983 
	C434.716614,353.519714 429.003265,358.216736 420.749786,358.312805 
	C417.950317,358.345398 415.150177,358.317932 412.096466,358.317932 
	C412.096466,364.019440 412.096466,369.226654 412.096466,374.807312 
	C416.546478,374.807312 420.538879,375.072235 424.486176,374.762665 
	C444.509430,373.192444 454.546967,361.263580 452.389679,340.644043 
	C451.964081,336.576294 451.928955,332.469269 451.597260,328.389801 
	C450.852325,319.227631 450.164703,310.057861 449.216003,300.915863 
	C447.714050,286.442261 450.496490,275.804810 468.284851,273.147552 
	C468.520325,268.270172 468.757721,263.352417 468.994385,258.450134 
	C453.748260,255.466080 448.486328,249.351013 449.062683,233.836060 
	C449.508789,221.827454 450.863770,209.851715 451.859009,197.865051 
	C452.090363,195.078400 453.033966,192.246292 452.726624,189.539932 
	C451.935852,182.577454 452.169708,174.906067 449.187378,168.915192 
	C443.880432,158.254532 423.697479,152.375275 412.197266,156.529327 
	C412.197266,161.629425 412.197266,166.710709 412.197266,172.193390 
	C416.014313,172.193390 419.490936,172.073853 422.952820,172.247559 
	C424.510925,172.325729 426.094818,172.845398 427.571991,173.412369 
	C433.586517,175.720947 434.801575,180.936981 434.523621,186.398178 
	C433.596893,204.605453 432.186920,222.788437 431.293182,240.996964 
	C430.888336,249.245193 434.267578,256.112671 441.156921,260.858429 
	C443.773743,262.661041 446.836548,263.816162 449.112762,264.970581 
	C445.306763,267.622040 441.409851,270.336884 437.027130,273.582947 
M148.060074,233.779541 
	C148.032089,234.367050 148.004120,234.954559 147.915512,236.815155 
	C138.782104,223.132935 130.025986,210.645279 122.014717,197.696777 
	C118.924042,192.701385 115.469345,191.312027 110.012909,192.717728 
	C110.012909,211.590714 110.012909,230.526413 110.012909,249.426178 
	C112.439972,249.426178 114.835342,249.426178 117.837196,249.426178 
	C117.837196,234.811951 117.837196,220.513962 117.837196,206.215973 
	C118.141571,206.159561 118.445938,206.103149 118.750313,206.046753 
	C128.364136,220.575958 137.977951,235.105148 147.419357,249.373810 
	C150.318359,249.373810 153.068680,249.373810 155.735382,249.373810 
	C155.735382,230.237961 155.735382,211.480896 155.735382,192.646790 
	C153.083542,192.646790 150.700668,192.646790 148.060623,192.646790 
	C148.060623,206.300232 148.060623,219.605316 148.060074,233.779541 
M271.067078,192.360046 
	C269.104431,192.360046 267.141754,192.360046 264.515167,192.360046 
	C264.515167,206.523651 264.515167,220.323273 264.515167,234.122879 
	C264.064117,234.265549 263.613037,234.408234 263.161987,234.550903 
	C255.436676,222.590424 247.558853,210.724686 240.046753,198.631760 
	C235.942856,192.025314 235.321762,191.441589 227.244232,192.884064 
	C227.244232,211.752106 227.244232,230.624725 227.244232,249.453613 
	C229.823074,249.453613 232.088425,249.453613 234.840424,249.453613 
	C234.840424,234.846985 234.840424,220.484253 234.840424,205.812714 
	C235.584473,206.211853 235.902206,206.275238 236.029297,206.465759 
	C244.502365,219.168518 253.287430,231.681381 261.246002,244.699448 
	C264.130432,249.417557 267.143616,250.627869 272.200745,249.229111 
	C272.296051,248.364288 272.493347,247.402817 272.494415,246.441101 
	C272.513428,229.619385 272.520630,212.797623 272.480927,195.975983 
	C272.478302,194.868088 272.078125,193.761139 271.067078,192.360046 
M264.819366,326.751831 
	C267.228943,332.242432 271.458191,333.389801 276.662720,331.954468 
	C276.662720,312.900574 276.662720,294.015076 276.662720,275.307159 
	C274.012177,275.307159 271.740387,275.307159 268.954834,275.307159 
	C268.954834,289.860657 268.954834,304.171997 268.954834,319.875336 
	C259.702850,305.767761 250.980591,293.054443 242.955185,279.915497 
	C240.110275,275.257874 237.088898,274.023529 232.220856,275.548706 
	C232.220856,294.348846 232.220856,313.100830 232.220856,332.105255 
	C234.816010,332.105255 237.239822,332.105255 240.077927,332.105255 
	C240.077927,318.024445 240.077927,304.191071 240.077927,289.108795 
	C248.651398,302.168823 256.523041,314.159729 264.819366,326.751831 
M339.030762,332.043427 
	C349.271301,335.215393 348.388947,326.130249 351.128052,320.711761 
	C357.946075,320.711761 364.755493,320.804199 371.560394,320.669006 
	C374.532257,320.609985 376.089966,321.050232 376.989960,324.599823 
	C379.050446,332.726532 379.418610,332.633179 388.510315,332.114044 
	C382.369019,315.384491 376.304413,298.743347 370.144287,282.137665 
	C367.378265,274.681396 367.291626,274.713531 358.740021,275.327850 
	C352.143158,293.862915 345.466003,312.623505 339.030762,332.043427 
M202.000580,277.197083 
	C201.232300,276.487122 200.555573,275.315887 199.680847,275.142273 
	C194.172058,274.048798 192.842422,274.867188 190.320404,281.739166 
	C184.216690,298.370514 178.289993,315.066864 172.168518,332.080078 
	C177.091324,332.362488 182.062943,334.115112 182.625290,326.715210 
	C182.776016,324.732178 184.053787,322.834778 184.887131,320.712189 
	C191.425858,320.712189 197.915054,320.903809 204.385330,320.636749 
	C207.979767,320.488403 210.332169,320.951569 210.905853,325.176208 
	C211.228088,327.549164 212.635208,329.774750 213.520981,331.985413 
	C216.329330,331.985413 219.037521,331.985413 222.068008,331.985413 
	C215.385849,313.679504 208.860641,295.803558 202.000580,277.197083 
M314.187073,197.153763 
	C313.666504,195.578720 313.145905,194.003662 312.582672,192.299591 
	C311.386749,192.299591 310.037598,192.461792 308.741119,192.269379 
	C304.750366,191.677063 302.781677,192.953247 301.453644,197.178391 
	C298.390228,206.924576 294.431458,216.386658 290.940735,226.002045 
	C288.158600,233.665527 285.531464,241.385254 282.692566,249.487946 
	C285.680664,249.487946 288.121246,249.487946 290.893127,249.487946 
	C292.437958,245.480667 294.063812,241.263245 295.794952,236.772766 
	C302.347107,236.772766 308.829285,237.020706 315.279236,236.672104 
	C318.699097,236.487274 320.432709,237.680481 321.398193,240.745697 
	C322.322723,243.680954 323.408875,246.565323 324.446686,249.537018 
	C326.935059,249.537018 329.372162,249.537018 332.189240,249.537018 
	C332.189240,248.385361 332.452393,247.344193 332.148376,246.509628 
	C329.229706,238.497360 326.149841,230.543686 323.246704,222.525940 
	C320.280823,214.334976 317.461517,206.090942 314.187073,197.153763 
M168.860107,244.052139 
	C168.248260,245.806824 167.636414,247.561508 166.940536,249.557159 
	C170.336685,249.557159 172.972290,249.557159 175.459457,249.557159 
	C176.320175,247.187836 177.490799,245.075287 177.818817,242.839142 
	C178.580200,237.648651 181.369629,236.096741 186.359131,236.706619 
	C189.970627,237.148087 193.750885,237.250595 197.328613,236.690781 
	C203.200012,235.772110 205.434097,238.700699 206.783615,243.736267 
	C208.598953,250.510025 209.756546,250.958939 216.982834,248.854156 
	C210.607697,231.181564 204.126907,213.552719 197.986740,195.806015 
	C197.135712,193.346313 196.579361,191.947220 193.825714,192.291901 
	C190.937866,192.653351 187.353760,190.955475 185.985306,195.391724 
	C184.670685,199.653503 183.157974,203.855850 181.668091,208.061569 
	C177.504623,219.814392 173.307907,231.555405 168.860107,244.052139 
M127.331284,281.929688 
	C121.573357,293.320007 124.975548,301.615814 137.107880,305.609467 
	C140.852646,306.842163 144.666962,307.861877 148.431229,309.037445 
	C152.790298,310.398773 155.672180,314.194122 155.120712,318.210266 
	C154.522583,322.566254 152.222473,325.308807 147.539124,326.073151 
	C139.422470,327.397827 136.486679,326.006348 132.389725,318.252594 
	C129.868988,318.252594 127.423714,318.252594 124.981934,318.252594 
	C125.374557,329.418427 135.546646,334.150513 146.104065,333.749725 
	C156.002884,333.373962 162.669800,327.391571 163.814896,318.366516 
	C164.683136,311.523438 159.339188,304.860657 150.567886,302.006165 
	C146.642059,300.728546 142.578400,299.843323 138.720551,298.397705 
	C135.512421,297.195587 132.949081,295.172333 133.045135,291.122742 
	C133.135040,287.331787 134.263885,284.515747 138.167130,282.993042 
	C145.569092,280.105499 150.731415,282.145325 154.869217,290.053223 
	C155.983643,290.053223 157.147141,290.079956 158.308853,290.046021 
	C159.594025,290.008514 160.877594,289.915466 162.135391,289.848022 
	C162.219696,285.186157 160.512085,281.668182 157.151428,278.910919 
	C150.435913,273.401062 133.532196,272.792603 127.331284,281.929688 
M308.591431,290.052246 
	C305.693695,293.323029 302.795959,296.593781 299.018127,300.857941 
	C299.018127,291.468933 299.018127,283.427612 299.018127,275.280151 
	C296.109833,275.280151 293.689972,275.280151 291.145508,275.280151 
	C291.145508,294.355804 291.145508,313.211456 291.145508,332.090088 
	C293.935272,332.090088 296.383148,332.090088 299.258392,332.090088 
	C299.258392,324.307861 299.258392,316.760132 299.258392,308.117310 
	C305.490906,315.039062 311.557373,320.723541 316.294983,327.357086 
	C320.393524,333.095825 325.304474,332.579437 330.952789,332.062897 
	C322.504730,322.643005 314.256134,313.445526 305.968567,304.204651 
	C314.601624,294.548401 322.908875,285.256592 331.496613,275.651031 
	C325.078918,274.033752 320.660553,275.187103 317.221191,280.337036 
	C314.970093,283.707703 311.775024,286.447968 308.591431,290.052246 
M361.022980,195.819183 
	C361.021698,208.963852 361.025238,222.108521 361.016174,235.253189 
	C361.013367,239.354340 358.920776,241.877823 354.913879,242.371307 
	C350.797272,242.878326 347.319397,241.803894 346.103699,237.162216 
	C345.662842,235.478989 345.220642,233.796112 344.801971,232.200272 
	C342.383514,232.200272 340.249176,232.200272 338.139069,232.200272 
	C336.641602,241.947540 342.964844,249.923920 353.180786,250.068634 
	C361.632935,250.188354 369.505615,244.858765 369.501099,235.074310 
	C369.499023,230.582031 369.496185,226.089737 369.495789,221.597458 
	C369.494965,211.991272 369.495514,202.385071 369.495514,192.078400 
	C366.336212,193.610901 362.437500,189.573380 361.022980,195.819183 
M390.971649,223.500000 
	C390.971649,213.238998 390.971649,202.977997 390.971649,192.534973 
	C387.984680,192.534973 385.558319,192.534973 382.839539,192.534973 
	C382.839539,211.632111 382.839539,230.506042 382.839539,249.337494 
	C385.705841,249.337494 388.255463,249.337494 390.972534,249.337494 
	C390.972534,240.800827 390.972534,232.650406 390.971649,223.500000 
z"/>
<path fill="#17E7E0" opacity="1.000000" stroke="none" 
	d="
M36.173862,262.084320 
	C35.872261,257.903015 36.187336,255.911591 41.199657,254.848160 
	C53.225594,252.296753 57.561954,244.703598 56.254932,231.630936 
	C55.086357,219.942978 54.445637,208.198166 53.762486,196.467346 
	C53.386581,190.012512 52.477253,183.394913 53.428795,177.095444 
	C55.667393,162.275314 67.202797,153.747070 83.642509,153.636536 
	C94.914040,153.560760 94.921501,153.560852 94.791870,165.047318 
	C94.775269,166.518631 94.633011,167.988541 94.521538,169.939148 
	C91.098259,170.287109 87.843094,170.945587 84.601509,170.884384 
	C75.820732,170.718613 70.799286,175.109619 70.838768,183.879013 
	C70.864075,189.500397 71.540779,195.121750 71.993141,200.737656 
	C72.655914,208.965775 73.697357,217.178238 73.976746,225.417740 
	C74.202431,232.073792 74.134514,238.851227 73.126595,245.410339 
	C71.774574,254.208679 65.778381,259.454926 57.523849,262.269714 
	C56.938511,262.469299 56.471058,263.014618 55.862892,263.462433 
	C73.686119,269.763641 76.695053,284.826965 74.343956,300.618988 
	C73.736023,304.702423 73.326401,308.821106 72.980141,312.936584 
	C72.190460,322.322449 71.162308,331.705292 70.852516,341.109863 
	C70.505623,351.640961 75.412544,356.336060 85.806175,356.387482 
	C88.599594,356.401306 91.393150,356.389557 94.500694,356.389557 
	C94.500694,361.739166 94.500694,366.482086 94.500694,372.038910 
	C83.076683,371.997559 71.579910,373.278870 61.713444,365.611023 
	C55.294418,360.622375 52.969151,353.344971 53.201565,345.785492 
	C53.607956,332.567108 55.178642,319.388794 55.936676,306.175079 
	C56.339172,299.158936 56.894707,291.977020 55.852375,285.101715 
	C54.814663,278.256866 49.573467,273.731079 42.832161,272.110229 
	C37.330299,270.787415 34.976135,268.110901 36.173862,262.084320 
z"/>
<path fill="#17E7E0" opacity="1.000000" stroke="none" 
	d="
M437.270050,273.317322 
	C441.409851,270.336884 445.306763,267.622040 449.112762,264.970581 
	C446.836548,263.816162 443.773743,262.661041 441.156921,260.858429 
	C434.267578,256.112671 430.888336,249.245193 431.293182,240.996964 
	C432.186920,222.788437 433.596893,204.605453 434.523621,186.398178 
	C434.801575,180.936981 433.586517,175.720947 427.571991,173.412369 
	C426.094818,172.845398 424.510925,172.325729 422.952820,172.247559 
	C419.490936,172.073853 416.014313,172.193390 412.197266,172.193390 
	C412.197266,166.710709 412.197266,161.629425 412.197266,156.529327 
	C423.697479,152.375275 443.880432,158.254532 449.187378,168.915192 
	C452.169708,174.906067 451.935852,182.577454 452.726624,189.539932 
	C453.033966,192.246292 452.090363,195.078400 451.859009,197.865051 
	C450.863770,209.851715 449.508789,221.827454 449.062683,233.836060 
	C448.486328,249.351013 453.748260,255.466080 468.994385,258.450134 
	C468.757721,263.352417 468.520325,268.270172 468.284851,273.147552 
	C450.496490,275.804810 447.714050,286.442261 449.216003,300.915863 
	C450.164703,310.057861 450.852325,319.227631 451.597260,328.389801 
	C451.928955,332.469269 451.964081,336.576294 452.389679,340.644043 
	C454.546967,361.263580 444.509430,373.192444 424.486176,374.762665 
	C420.538879,375.072235 416.546478,374.807312 412.096466,374.807312 
	C412.096466,369.226654 412.096466,364.019440 412.096466,358.317932 
	C415.150177,358.317932 417.950317,358.345398 420.749786,358.312805 
	C429.003265,358.216736 434.716614,353.519714 434.436707,345.475983 
	C433.994659,332.772552 432.142487,320.121185 431.601135,307.417328 
	C431.108826,295.864594 428.566345,283.780029 437.270050,273.317322 
z"/>
<path fill="#F3F3F3" opacity="1.000000" stroke="none" 
	d="
M148.060349,233.344971 
	C148.060623,219.605316 148.060623,206.300232 148.060623,192.646790 
	C150.700668,192.646790 153.083542,192.646790 155.735382,192.646790 
	C155.735382,211.480896 155.735382,230.237961 155.735382,249.373810 
	C153.068680,249.373810 150.318359,249.373810 147.419357,249.373810 
	C137.977951,235.105148 128.364136,220.575958 118.750313,206.046753 
	C118.445938,206.103149 118.141571,206.159561 117.837196,206.215973 
	C117.837196,220.513962 117.837196,234.811951 117.837196,249.426178 
	C114.835342,249.426178 112.439972,249.426178 110.012909,249.426178 
	C110.012909,230.526413 110.012909,211.590714 110.012909,192.717728 
	C115.469345,191.312027 118.924042,192.701385 122.014717,197.696777 
	C130.025986,210.645279 138.782104,223.132935 147.915512,236.815155 
	C148.004120,234.954559 148.032089,234.367050 148.060349,233.344971 
z"/>
<path fill="#F6F6F6" opacity="1.000000" stroke="none" 
	d="
M271.464996,192.506897 
	C272.078125,193.761139 272.478302,194.868088 272.480927,195.975983 
	C272.520630,212.797623 272.513428,229.619385 272.494415,246.441101 
	C272.493347,247.402817 272.296051,248.364288 272.200745,249.229111 
	C267.143616,250.627869 264.130432,249.417557 261.246002,244.699448 
	C253.287430,231.681381 244.502365,219.168518 236.029297,206.465759 
	C235.902206,206.275238 235.584473,206.211853 234.840424,205.812714 
	C234.840424,220.484253 234.840424,234.846985 234.840424,249.453613 
	C232.088425,249.453613 229.823074,249.453613 227.244232,249.453613 
	C227.244232,230.624725 227.244232,211.752106 227.244232,192.884064 
	C235.321762,191.441589 235.942856,192.025314 240.046753,198.631760 
	C247.558853,210.724686 255.436676,222.590424 263.161987,234.550903 
	C263.613037,234.408234 264.064117,234.265549 264.515167,234.122879 
	C264.515167,220.323273 264.515167,206.523651 264.515167,192.360046 
	C267.141754,192.360046 269.104431,192.360046 271.464996,192.506897 
z"/>
<path fill="#F6F6F6" opacity="1.000000" stroke="none" 
	d="
M264.606995,326.451233 
	C256.523041,314.159729 248.651398,302.168823 240.077927,289.108795 
	C240.077927,304.191071 240.077927,318.024445 240.077927,332.105255 
	C237.239822,332.105255 234.816010,332.105255 232.220856,332.105255 
	C232.220856,313.100830 232.220856,294.348846 232.220856,275.548706 
	C237.088898,274.023529 240.110275,275.257874 242.955185,279.915497 
	C250.980591,293.054443 259.702850,305.767761 268.954834,319.875336 
	C268.954834,304.171997 268.954834,289.860657 268.954834,275.307159 
	C271.740387,275.307159 274.012177,275.307159 276.662720,275.307159 
	C276.662720,294.015076 276.662720,312.900574 276.662720,331.954468 
	C271.458191,333.389801 267.228943,332.242432 264.606995,326.451233 
z"/>
<path fill="#F3F3F3" opacity="1.000000" stroke="none" 
	d="
M338.909821,331.713745 
	C345.466003,312.623505 352.143158,293.862915 358.740021,275.327850 
	C367.291626,274.713531 367.378265,274.681396 370.144287,282.137665 
	C376.304413,298.743347 382.369019,315.384491 388.510315,332.114044 
	C379.418610,332.633179 379.050446,332.726532 376.989960,324.599823 
	C376.089966,321.050232 374.532257,320.609985 371.560394,320.669006 
	C364.755493,320.804199 357.946075,320.711761 351.128052,320.711761 
	C348.388947,326.130249 349.271301,335.215393 338.909821,331.713745 
M359.479584,296.944305 
	C357.475525,302.471832 355.471466,307.999359 353.333832,313.895386 
	C360.600128,313.895386 366.689606,313.895386 373.425232,313.895386 
	C370.065491,304.612549 366.842529,295.707550 363.619537,286.802551 
	C363.260742,286.948792 362.901947,287.095032 362.543152,287.241272 
	C361.617188,290.228485 360.691254,293.215668 359.479584,296.944305 
z"/>
<path fill="#F4F4F4" opacity="1.000000" stroke="none" 
	d="
M202.167999,277.562347 
	C208.860641,295.803558 215.385849,313.679504 222.068008,331.985413 
	C219.037521,331.985413 216.329330,331.985413 213.520981,331.985413 
	C212.635208,329.774750 211.228088,327.549164 210.905853,325.176208 
	C210.332169,320.951569 207.979767,320.488403 204.385330,320.636749 
	C197.915054,320.903809 191.425858,320.712189 184.887131,320.712189 
	C184.053787,322.834778 182.776016,324.732178 182.625290,326.715210 
	C182.062943,334.115112 177.091324,332.362488 172.168518,332.080078 
	C178.289993,315.066864 184.216690,298.370514 190.320404,281.739166 
	C192.842422,274.867188 194.172058,274.048798 199.680847,275.142273 
	C200.555573,275.315887 201.232300,276.487122 202.167999,277.562347 
M203.994339,314.075500 
	C206.489868,314.303040 207.208389,313.640137 206.172256,311.004150 
	C203.512558,304.237701 201.179810,297.343170 198.654068,290.522919 
	C198.423874,289.901306 197.745499,289.445618 197.275238,288.912903 
	C196.614761,289.502991 195.616669,289.968475 195.345856,290.702362 
	C192.528030,298.338409 189.827164,306.017609 186.955750,314.072144 
	C192.814133,314.072144 197.952133,314.072144 203.994339,314.075500 
z"/>
<path fill="#F2F2F2" opacity="1.000000" stroke="none" 
	d="
M314.382568,197.511963 
	C317.461517,206.090942 320.280823,214.334976 323.246704,222.525940 
	C326.149841,230.543686 329.229706,238.497360 332.148376,246.509628 
	C332.452393,247.344193 332.189240,248.385361 332.189240,249.537018 
	C329.372162,249.537018 326.935059,249.537018 324.446686,249.537018 
	C323.408875,246.565323 322.322723,243.680954 321.398193,240.745697 
	C320.432709,237.680481 318.699097,236.487274 315.279236,236.672104 
	C308.829285,237.020706 302.347107,236.772766 295.794952,236.772766 
	C294.063812,241.263245 292.437958,245.480667 290.893127,249.487946 
	C288.121246,249.487946 285.680664,249.487946 282.692566,249.487946 
	C285.531464,241.385254 288.158600,233.665527 290.940735,226.002045 
	C294.431458,216.386658 298.390228,206.924576 301.453644,197.178391 
	C302.781677,192.953247 304.750366,191.677063 308.741119,192.269379 
	C310.037598,192.461792 311.386749,192.299591 312.582672,192.299591 
	C313.145905,194.003662 313.666504,195.578720 314.382568,197.511963 
M310.223846,209.331772 
	C309.456116,207.314468 308.688385,205.297180 307.680450,202.648727 
	C304.189453,212.505295 301.008698,221.485886 297.811676,230.512421 
	C304.689636,230.512421 310.890686,230.512421 317.681183,230.512421 
	C315.214172,223.329620 312.924622,216.663406 310.223846,209.331772 
z"/>
<path fill="#F2F2F2" opacity="1.000000" stroke="none" 
	d="
M168.992218,243.676605 
	C173.307907,231.555405 177.504623,219.814392 181.668091,208.061569 
	C183.157974,203.855850 184.670685,199.653503 185.985306,195.391724 
	C187.353760,190.955475 190.937866,192.653351 193.825714,192.291901 
	C196.579361,191.947220 197.135712,193.346313 197.986740,195.806015 
	C204.126907,213.552719 210.607697,231.181564 216.982834,248.854156 
	C209.756546,250.958939 208.598953,250.510025 206.783615,243.736267 
	C205.434097,238.700699 203.200012,235.772110 197.328613,236.690781 
	C193.750885,237.250595 189.970627,237.148087 186.359131,236.706619 
	C181.369629,236.096741 178.580200,237.648651 177.818817,242.839142 
	C177.490799,245.075287 176.320175,247.187836 175.459457,249.557159 
	C172.972290,249.557159 170.336685,249.557159 166.940536,249.557159 
	C167.636414,247.561508 168.248260,245.806824 168.992218,243.676605 
M185.896423,220.275620 
	C184.650024,223.648422 183.403641,227.021225 182.049820,230.684723 
	C188.786438,230.684723 195.204910,230.684723 201.932465,230.684723 
	C198.819458,221.517715 195.741806,212.454834 192.156082,201.895782 
	C189.758865,208.683121 187.852463,214.080826 185.896423,220.275620 
z"/>
<path fill="#F5F5F5" opacity="1.000000" stroke="none" 
	d="
M127.570267,281.653625 
	C133.532196,272.792603 150.435913,273.401062 157.151428,278.910919 
	C160.512085,281.668182 162.219696,285.186157 162.135391,289.848022 
	C160.877594,289.915466 159.594025,290.008514 158.308853,290.046021 
	C157.147141,290.079956 155.983643,290.053223 154.869217,290.053223 
	C150.731415,282.145325 145.569092,280.105499 138.167130,282.993042 
	C134.263885,284.515747 133.135040,287.331787 133.045135,291.122742 
	C132.949081,295.172333 135.512421,297.195587 138.720551,298.397705 
	C142.578400,299.843323 146.642059,300.728546 150.567886,302.006165 
	C159.339188,304.860657 164.683136,311.523438 163.814896,318.366516 
	C162.669800,327.391571 156.002884,333.373962 146.104065,333.749725 
	C135.546646,334.150513 125.374557,329.418427 124.981934,318.252594 
	C127.423714,318.252594 129.868988,318.252594 132.389725,318.252594 
	C136.486679,326.006348 139.422470,327.397827 147.539124,326.073151 
	C152.222473,325.308807 154.522583,322.566254 155.120712,318.210266 
	C155.672180,314.194122 152.790298,310.398773 148.431229,309.037445 
	C144.666962,307.861877 140.852646,306.842163 137.107880,305.609467 
	C124.975548,301.615814 121.573357,293.320007 127.570267,281.653625 
z"/>
<path fill="#F7F7F7" opacity="1.000000" stroke="none" 
	d="
M308.797119,289.761414 
	C311.775024,286.447968 314.970093,283.707703 317.221191,280.337036 
	C320.660553,275.187103 325.078918,274.033752 331.496613,275.651031 
	C322.908875,285.256592 314.601624,294.548401 305.968567,304.204651 
	C314.256134,313.445526 322.504730,322.643005 330.952789,332.062897 
	C325.304474,332.579437 320.393524,333.095825 316.294983,327.357086 
	C311.557373,320.723541 305.490906,315.039062 299.258392,308.117310 
	C299.258392,316.760132 299.258392,324.307861 299.258392,332.090088 
	C296.383148,332.090088 293.935272,332.090088 291.145508,332.090088 
	C291.145508,313.211456 291.145508,294.355804 291.145508,275.280151 
	C293.689972,275.280151 296.109833,275.280151 299.018127,275.280151 
	C299.018127,283.427612 299.018127,291.468933 299.018127,300.857941 
	C302.795959,296.593781 305.693695,293.323029 308.797119,289.761414 
z"/>
<path fill="#F7F7F7" opacity="1.000000" stroke="none" 
	d="
M361.023315,195.355942 
	C362.437500,189.573380 366.336212,193.610901 369.495514,192.078400 
	C369.495514,202.385071 369.494965,211.991272 369.495789,221.597458 
	C369.496185,226.089737 369.499023,230.582031 369.501099,235.074310 
	C369.505615,244.858765 361.632935,250.188354 353.180786,250.068634 
	C342.964844,249.923920 336.641602,241.947540 338.139069,232.200272 
	C340.249176,232.200272 342.383514,232.200272 344.801971,232.200272 
	C345.220642,233.796112 345.662842,235.478989 346.103699,237.162216 
	C347.319397,241.803894 350.797272,242.878326 354.913879,242.371307 
	C358.920776,241.877823 361.013367,239.354340 361.016174,235.253189 
	C361.025238,222.108521 361.021698,208.963852 361.023315,195.355942 
z"/>
<path fill="#F8F8F8" opacity="1.000000" stroke="none" 
	d="
M390.972107,224.000000 
	C390.972534,232.650406 390.972534,240.800827 390.972534,249.337494 
	C388.255463,249.337494 385.705841,249.337494 382.839539,249.337494 
	C382.839539,230.506042 382.839539,211.632111 382.839539,192.534973 
	C385.558319,192.534973 387.984680,192.534973 390.971649,192.534973 
	C390.971649,202.977997 390.971649,213.238998 390.972107,224.000000 
z"/>
<path fill="#050505" opacity="1.000000" stroke="none" 
	d="
M359.622437,296.573608 
	C360.691254,293.215668 361.617188,290.228485 362.543152,287.241272 
	C362.901947,287.095032 363.260742,286.948792 363.619537,286.802551 
	C366.842529,295.707550 370.065491,304.612549 373.425232,313.895386 
	C366.689606,313.895386 360.600128,313.895386 353.333832,313.895386 
	C355.471466,307.999359 357.475525,302.471832 359.622437,296.573608 
z"/>
<path fill="#070707" opacity="1.000000" stroke="none" 
	d="
M203.542236,314.073822 
	C197.952133,314.072144 192.814133,314.072144 186.955750,314.072144 
	C189.827164,306.017609 192.528030,298.338409 195.345856,290.702362 
	C195.616669,289.968475 196.614761,289.502991 197.275238,288.912903 
	C197.745499,289.445618 198.423874,289.901306 198.654068,290.522919 
	C201.179810,297.343170 203.512558,304.237701 206.172256,311.004150 
	C207.208389,313.640137 206.489868,314.303040 203.542236,314.073822 
z"/>
<path fill="#090909" opacity="1.000000" stroke="none" 
	d="
M310.429443,209.664490 
	C312.924622,216.663406 315.214172,223.329620 317.681183,230.512421 
	C310.890686,230.512421 304.689636,230.512421 297.811676,230.512421 
	C301.008698,221.485886 304.189453,212.505295 307.680450,202.648727 
	C308.688385,205.297180 309.456116,207.314468 310.429443,209.664490 
z"/>
<path fill="#0A0A0A" opacity="1.000000" stroke="none" 
	d="
M185.921249,219.877075 
	C187.852463,214.080826 189.758865,208.683121 192.156082,201.895782 
	C195.741806,212.454834 198.819458,221.517715 201.932465,230.684723 
	C195.204910,230.684723 188.786438,230.684723 182.049820,230.684723 
	C183.403641,227.021225 184.650024,223.648422 185.921249,219.877075 
z"/>
</svg>